<svg width="56" height="56" viewBox="0 0 56 56" fill="none" xmlns="http://www.w3.org/2000/svg">
<path d="M28 56C43.464 56 56 43.464 56 28C56 12.536 43.464 0 28 0C12.536 0 0 12.536 0 28C0 43.464 12.536 56 28 56Z" fill="url(#paint0_linear_62_8607)"/>
<path d="M49.8519 33.0158C46.308 30.8532 41.564 29.6531 36.5029 29.6531C31.4419 29.6531 26.6978 30.8419 23.154 33.0158C19.8479 35.0425 18.0137 37.6466 18.0137 40.3413C18.0137 41.9717 18.693 43.5795 19.9498 45.0401C20.7536 44.7457 21.6141 44.5872 22.4973 44.5872C24.49 44.5872 26.3582 45.3684 27.7735 46.7724C28.7472 47.7461 29.4265 48.9576 29.7435 50.2823C31.8721 50.7804 34.1479 51.0409 36.5143 51.0409C38.8806 51.0409 41.1564 50.7804 43.285 50.2823C43.602 48.9689 44.27 47.7461 45.2551 46.7724C46.6364 45.3571 48.5159 44.5872 50.5086 44.5872C50.5199 44.5872 50.5199 44.5872 50.5312 44.5872C52.1164 42.4473 53.4071 40.0922 54.3355 37.556C53.5203 35.8803 52.0031 34.3179 49.8519 33.0158ZM36.5029 38.3599C34.2158 38.3599 32.3477 36.5031 32.3477 34.216H40.6469C40.6469 36.5031 38.79 38.3599 36.5029 38.3599Z" fill="white"/>
<path d="M22.1237 31.057C22.52 30.8079 22.9389 30.5815 23.3692 30.3664L23.3579 30.355C22.3049 29.5625 21.0707 29.1888 19.8479 29.1888C18.0703 29.1888 16.3154 29.9927 15.1832 31.5212L14.6963 32.1779L17.9911 34.6575C18.9988 33.3102 20.4027 32.11 22.1237 31.057Z" fill="white"/>
<path d="M18.025 46.059C16.9154 44.6324 16.2248 43.0926 16.021 41.4735C15.9644 41.0998 15.9417 40.7149 15.9417 40.3412C15.9417 38.4617 16.5758 36.6275 17.7533 34.9745H17.323C14.1075 34.9745 11.4807 37.5899 11.4807 40.8055V41.6207H15.8285C14.6963 42.5604 13.9603 43.8625 13.7678 45.3344C13.564 46.8855 13.9603 48.414 14.9227 49.6595L15.285 50.135C15.6134 48.8782 16.2701 47.7121 17.2098 46.7723C17.4702 46.5006 17.742 46.2854 18.025 46.059Z" fill="white"/>
<path d="M53.1467 29.1888C51.9239 29.1888 50.6898 29.5625 49.6368 30.355L49.6255 30.3664C50.0557 30.5928 50.4747 30.8079 50.8709 31.057C52.5919 32.11 53.9732 33.3102 55.0036 34.6462L55.264 34.4537C55.615 32.9818 55.8527 31.4533 55.9546 29.9021C55.0942 29.4266 54.1204 29.1888 53.1467 29.1888Z" fill="white"/>
<path d="M29.4719 28.3171C32.6875 28.3171 35.3029 25.7017 35.3029 22.4861C35.3029 19.2706 32.6875 16.6552 29.4719 16.6552C26.2564 16.6552 23.641 19.2706 23.641 22.4861C23.6296 25.7017 26.2451 28.3171 29.4719 28.3171ZM29.4719 19.2706C29.4832 19.2706 29.4833 19.2706 29.4946 19.2706C29.0756 19.6669 28.8152 20.2443 28.8152 20.8784C28.8152 22.1125 29.8229 23.1202 31.057 23.1202C31.6798 23.1202 32.2459 22.8598 32.6648 22.4408C32.6648 22.4522 32.6648 22.4522 32.6648 22.4635C32.6648 24.2411 31.2269 25.6677 29.4606 25.6677C27.683 25.6677 26.2564 24.2411 26.2564 22.4635C26.279 20.7085 27.7056 19.2706 29.4719 19.2706Z" fill="white"/>
<path d="M43.5228 28.3171C46.7383 28.3171 49.3537 25.7017 49.3537 22.4861C49.3537 19.2706 46.7383 16.6552 43.5228 16.6552C40.3072 16.6552 37.6918 19.2706 37.6918 22.4861C37.6805 25.7017 40.2959 28.3171 43.5228 28.3171ZM43.5228 19.2706C43.5341 19.2706 43.5341 19.2706 43.5454 19.2706C43.1265 19.6669 42.8661 20.2443 42.8661 20.8784C42.8661 22.1125 43.8738 23.1202 45.1079 23.1202C45.7306 23.1202 46.2967 22.8598 46.7157 22.4408C46.7157 22.4522 46.7157 22.4522 46.7157 22.4635C46.7157 24.2411 45.2777 25.6677 43.5114 25.6677C41.7338 25.6677 40.3072 24.2411 40.3072 22.4635C40.3186 20.7085 41.7452 19.2706 43.5228 19.2706Z" fill="white"/>
<path d="M28.317 52.026C28.317 48.7992 25.7128 46.1951 22.486 46.1951C19.2591 46.1951 16.6437 48.8218 16.6437 52.026C16.6437 52.6035 16.7343 53.1696 16.8928 53.7017C18.7949 54.5283 20.8103 55.151 22.9162 55.5359C22.3388 54.3358 22.3162 53.1696 22.9728 52.5129C23.9579 51.5279 26.1431 52.094 27.8301 53.7923C27.8867 53.8489 27.9433 53.9055 27.9773 53.9622C28.1924 53.3508 28.317 52.7054 28.317 52.026Z" fill="white"/>
<path d="M49.0707 46.376C47.1346 46.8742 45.5948 48.3234 44.972 50.2029C46.4666 49.0707 47.8366 47.7913 49.0707 46.376Z" fill="white"/>
<defs>
<linearGradient id="paint0_linear_62_8607" x1="32.7191" y1="3.77528" x2="16.9888" y2="38.0674" gradientUnits="userSpaceOnUse">
<stop stop-color="#FF7700"/>
<stop offset="0.759207" stop-color="#FF3554"/>
</linearGradient>
</defs>
</svg>
